{"title":"Dragonball Z - The Return Of Cooler[2002]DvDrip-LW","uid":4946048,"size":723171649,"categoryP":"video","categoryS":"movies","magnet":"?xt=urn:btih:3fe68e15f2016bd30d93cabbee6e2a0c89fece3b&amp;dn=Dragonball+Z+-+The+Return+Of+Cooler%5B2002%5DDvDrip-LW&amp;tr=udp%3A%2F%2Ftracker.openbittorrent.com%3A80&amp;tr=udp%3A%2F%2Fopen.demonii.com%3A1337&amp;tr=udp%3A%2F%2Ftracker.coppersurfer.tk%3A6969&amp;tr=udp%3A%2F%2Fexodus.desync.com%3A6969","seeders":1,"leechers":0,"uploader":"XoLWoX","files":-1,"time":1244662774,"description":"-------------------------------------------------\nF I L E - I N F O\n-------------------------------------------------\nTITLE......[ Dragonball Z - The Return Of Cooler\nYEAR.......[ 2002\nGENRE......[ Anime\nRUNTIME....[ 00:45:38\nIMDB RATE..[ 7.0/10 (306 Votes)\nIMDB URL...[ http://www.imdb.com/title/tt0142237/\n-------------------------------------------------\nFormat                           : AVI\nFormat/Info                      : Audio Video Interleave\nFile size                        : 690 MiB\nDuration                         : 45mn 38s\nOverall bit rate                 : 2 112 Kbps\nWriting application              : Nandub v1.0rc2\nWriting library                  : Nandub build 1853/release\nSOURCE                           : DVD\n-------------------------------------------------\nV I D E O\n-------------------------------------------------\nFormat                           : MPEG-4 Visual\nFormat settings, BVOP            : Yes\nFormat settings, QPel            : No\nFormat settings, GMC             : 2 warppoints\nFormat settings, Matrix          : Default (H.263)\nMuxing mode                      : Packed bitstream\nCodec ID                         : DX50\nCodec ID/Hint                    : DivX 5\nDuration                         : 45mn 38s\nBit rate                         : 1 953 Kbps\nWidth                            : 576 pixels\nHeight                           : 432 pixels\nDisplay aspect ratio             : 4/3\nFrame rate                       : 23.976 fps\nResolution                       : 24 bits\nScan type                        : Progressive\nBits/(Pixel*Frame)               : 0.327\nStream size                      : 638 MiB (92%)\nWriting library                  : DivX 5.0.2\n-------------------------------------------------\nA U D I O\n-------------------------------------------------\nFormat                           : MPEG Audio\nFormat version                   : Version 1\nFormat profile                   : Layer 3\nCodec ID                         : 55\nCodec ID/Hint                    : MP3\nDuration                         : 45mn 38s\nBit rate mode                    : Variable\nBit rate                         : 143 Kbps\nMinimum bit rate                 : 64.0 Kbps\nChannel(s)                       : 2 channels\nSampling rate                    : 48.0 KHz\nResolution                       : 16 bits\nStream size                      : 47.7 MiB (7%)\nAlignment                        : Aligned on interleaves\nInterleave, duration             : 24 ms (0.58 video frame)\nInterleave, preload duration     : 227 ms\nWriting library                  : LAME3.92 \nEncoding settings                : VBR\n-------------------------------------------------\nP L O T\n-------------------------------------------------\nWhen a giant &quot;living planet&quot; called the Big Gete \nStar threatens the existence of New Namek, Goku \nand his friends must to spring into action and \nsave the New Namekian home world from this invading \nmenace. But their fight won't be easy, as the Big \nGete Star has an army of powerful Cyclopean Guards \nat its disposal. And within the depths of the Star \nlurks an old nemesis: Cooler! Based on the ever-popular \nJapanese anime series. \n\nStarring: Doc Harris, Ian James Corlett\n\nDirector: Mitsuo Hashimoto\n-------------------------------------------------","torrent":{"xt":"urn:btih:3fe68e15f2016bd30d93cabbee6e2a0c89fece3b","amp;dn":"Dragonball+Z+-+The+Return+Of+Cooler%5B2002%5DDvDrip-LW","amp;tr":["udp%3A%2F%2Ftracker.openbittorrent.com%3A80","udp%3A%2F%2Fopen.demonii.com%3A1337","udp%3A%2F%2Ftracker.coppersurfer.tk%3A6969","udp%3A%2F%2Fexodus.desync.com%3A6969"],"infoHash":"3fe68e15f2016bd30d93cabbee6e2a0c89fece3b","infoHashBuffer":{"type":"Buffer","data":[63,230,142,21,242,1,107,211,13,147,202,187,238,110,42,12,137,254,206,59]},"announce":[],"urlList":[]}}